grf
version=1
nRows=52
nColumns=19
inDegrees=yes
endheader
time	ground_force_1_vx	ground_force_1_vy	ground_force_1_vz	ground_force_1_px	ground_force_1_py	ground_force_1_pz	ground_moment_1_mx	ground_moment_1_my	ground_moment_1_mz	ground_force_2_vx	ground_force_2_vy	ground_force_2_vz	ground_force_2_px	ground_force_2_py	ground_force_2_pz	ground_moment_2_mx	ground_moment_2_my	ground_moment_2_mz
1.921000	17.122952	1335.202546	-415.454299	0.138087	0.000000	-0.773102	0.000000	12.728977	0.000000	4.430377	1252.219511	410.650818	0.156901	0.000000	-1.567005	-0.000000	-7.434401	0.000000
1.922000	17.129516	1335.599796	-415.612032	0.139211	0.000000	-0.775105	0.000000	12.732800	0.000000	4.463530	1252.347404	410.694321	0.157082	0.000000	-1.568886	-0.000000	-7.431241	0.000000
1.923000	17.135562	1336.007902	-415.770312	0.138486	0.000000	-0.774063	0.000000	12.736571	0.000000	4.491521	1252.480460	410.736804	0.156468	0.000000	-1.566988	-0.000000	-7.428410	0.000000
1.924000	17.141431	1336.427223	-415.929137	0.139521	0.000000	-0.774455	0.000000	12.740297	0.000000	4.513979	1252.615343	410.777690	0.157645	0.000000	-1.567591	-0.000000	-7.425895	0.000000
1.925000	17.147590	1336.858226	-416.088462	0.138554	0.000000	-0.775914	0.000000	12.743962	0.000000	4.530566	1252.748608	410.816506	0.157457	0.000000	-1.567796	-0.000000	-7.423711	0.000000
1.926000	17.154572	1337.301000	-416.248224	0.139319	0.000000	-0.774331	0.000000	12.747539	0.000000	4.540970	1252.877350	410.852861	0.157066	0.000000	-1.568909	-0.000000	-7.421871	0.000000
1.927000	17.162935	1337.754956	-416.408371	0.139698	0.000000	-0.774569	0.000000	12.751005	0.000000	4.544855	1252.999264	410.886429	0.157673	0.000000	-1.567754	-0.000000	-7.420358	0.000000
1.928000	17.173275	1338.219114	-416.568855	0.139076	0.000000	-0.775268	0.000000	12.754326	0.000000	4.541843	1253.112264	410.916981	0.156975	0.000000	-1.568578	-0.000000	-7.419132	0.000000
1.929000	17.186220	1338.692632	-416.729609	0.139336	0.000000	-0.775345	0.000000	12.757452	0.000000	4.531573	1253.214042	410.944402	0.157172	0.000000	-1.568428	-0.000000	-7.418148	0.000000
1.930000	17.202339	1339.175026	-416.890537	0.138932	0.000000	-0.774268	0.000000	12.760357	0.000000	4.513764	1253.301787	410.968665	0.157810	0.000000	-1.568019	-0.000000	-7.417378	0.000000
1.931000	17.222021	1339.665935	-417.051504	0.139159	0.000000	-0.774336	0.000000	12.763080	0.000000	4.488210	1253.372274	410.989786	0.157713	0.000000	-1.567960	-0.000000	-7.416818	0.000000
1.932000	17.245390	1340.164681	-417.212322	0.139600	0.000000	-0.773969	0.000000	12.765710	0.000000	4.454767	1253.422320	411.007781	0.158038	0.000000	-1.568550	-0.000000	-7.416473	0.000000
1.933000	17.272303	1340.669848	-417.372759	0.139284	0.000000	-0.774104	0.000000	12.768343	0.000000	4.413373	1253.449193	411.022675	0.157801	0.000000	-1.567926	-0.000000	-7.416355	0.000000
1.934000	17.302468	1341.179158	-417.532541	0.138955	0.000000	-0.774331	0.000000	12.771071	0.000000	4.364129	1253.450861	411.034554	0.159425	0.000000	-1.569423	-0.000000	-7.416483	0.000000
1.935000	17.335603	1341.689974	-417.691263	0.139658	0.000000	-0.774704	-0.000000	12.773975	0.000000	4.307352	1253.426246	411.043594	0.157733	0.000000	-1.568023	-0.000000	-7.416872	0.000000
1.936000	17.371495	1342.200147	-417.848272	0.139729	0.000000	-0.773763	-0.000000	12.777108	0.000000	4.243563	1253.375210	411.050005	0.158534	0.000000	-1.567765	-0.000000	-7.417515	0.000000
1.937000	17.410029	1342.708114	-418.002669	0.139155	0.000000	-0.773664	-0.000000	12.780482	0.000000	4.173430	1253.298012	411.053961	0.158400	0.000000	-1.566338	-0.000000	-7.418397	0.000000
1.938000	17.451171	1343.212120	-418.153408	0.139368	0.000000	-0.773726	-0.000000	12.784081	0.000000	4.097664	1253.194930	411.055590	0.158358	0.000000	-1.568080	-0.000000	-7.419500	0.000000
1.939000	17.494901	1343.709541	-418.299419	0.139146	0.000000	-0.773177	-0.000000	12.787882	0.000000	4.016932	1253.066438	411.055024	0.158445	0.000000	-1.567869	-0.000000	-7.420807	0.000000
1.940000	17.541133	1344.196859	-418.439758	0.140323	0.000000	-0.775173	-0.000000	12.791897	0.000000	3.931832	1252.913449	411.052442	0.159274	0.000000	-1.569027	-0.000000	-7.422310	0.000000
1.941000	17.589685	1344.670145	-418.573682	0.140035	0.000000	-0.773849	-0.000000	12.796159	0.000000	3.842879	1252.737325	411.048037	0.158219	0.000000	-1.567575	-0.000000	-7.424018	0.000000
1.942000	17.640341	1345.125585	-418.700603	0.139812	0.000000	-0.774579	-0.000000	12.800685	0.000000	3.750534	1252.539663	411.041939	0.159395	0.000000	-1.567789	-0.000000	-7.425953	0.000000
1.943000	17.692971	1345.559497	-418.820002	0.139831	0.000000	-0.773720	-0.000000	12.805436	0.000000	3.655257	1252.321856	411.034172	0.159183	0.000000	-1.566953	-0.000000	-7.428140	0.000000
1.944000	17.747579	1345.968184	-418.931432	0.140049	0.000000	-0.775021	-0.000000	12.810323	0.000000	3.557523	1252.084668	411.024632	0.158672	0.000000	-1.569367	-0.000000	-7.430608	0.000000
1.945000	17.804220	1346.348209	-419.034570	0.139888	0.000000	-0.773120	-0.000000	12.815249	0.000000	3.457832	1251.828245	411.013117	0.159651	0.000000	-1.569637	-0.000000	-7.433382	0.000000
1.946000	17.862922	1346.696859	-419.129283	0.140048	0.000000	-0.773476	-0.000000	12.820140	0.000000	3.356781	1251.552827	410.999438	0.159603	0.000000	-1.569136	-0.000000	-7.436467	0.000000
1.947000	17.923649	1347.012236	-419.215608	0.139638	0.000000	-0.776103	-0.000000	12.824958	0.000000	3.255101	1251.259591	410.983534	0.159058	0.000000	-1.569048	-0.000000	-7.439812	0.000000
1.948000	17.986303	1347.293147	-419.293622	0.140382	0.000000	-0.774174	-0.000000	12.829687	0.000000	3.153581	1250.950563	410.965414	0.159925	0.000000	-1.568969	-0.000000	-7.443330	0.000000
1.949000	18.050779	1347.539122	-419.363363	0.140017	0.000000	-0.774337	-0.000000	12.834315	0.000000	3.052960	1250.627807	410.945093	0.159420	0.000000	-1.568604	-0.000000	-7.446938	-0.000000
1.950000	18.117090	1347.750203	-419.424997	0.140210	0.000000	-0.773673	-0.000000	12.838811	0.000000	2.953901	1250.293092	410.922587	0.159767	0.000000	-1.569664	-0.000000	-7.450580	-0.000000
1.951000	18.185403	1347.926354	-419.478976	0.139681	0.000000	-0.773385	-0.000000	12.843123	0.000000	2.856999	1249.948366	410.897893	0.159909	0.000000	-1.568079	-0.000000	-7.454231	-0.000000
1.952000	18.255871	1348.067098	-419.525954	0.140486	0.000000	-0.774067	-0.000000	12.847195	0.000000	2.762811	1249.596284	410.870943	0.160727	0.000000	-1.569614	-0.000000	-7.457892	-0.000000
1.953000	18.328471	1348.171967	-419.566655	0.140416	0.000000	-0.773549	-0.000000	12.850989	0.000000	2.671953	1249.239936	410.841587	0.160242	0.000000	-1.568608	-0.000000	-7.461552	-0.000000
1.954000	18.403043	1348.241235	-419.601867	0.140251	0.000000	-0.773885	-0.000000	12.854472	0.000000	2.585128	1248.882155	410.809580	0.160640	0.000000	-1.569128	-0.000000	-7.465170	-0.000000
1.955000	18.479404	1348.275928	-419.632439	0.140256	0.000000	-0.773649	-0.000000	12.857601	0.000000	2.503029	1248.525105	410.774562	0.160138	0.000000	-1.568952	-0.000000	-7.468691	-0.000000
1.956000	18.557404	1348.277570	-419.659224	0.140189	0.000000	-0.776111	-0.000000	12.860318	0.000000	2.426197	1248.170150	410.736073	0.160795	0.000000	-1.569981	-0.000000	-7.472082	-0.000000
1.957000	18.636931	1348.248565	-419.683013	0.140070	0.000000	-0.773270	-0.000000	12.862558	0.000000	2.354934	1247.817754	410.693641	0.159936	0.000000	-1.569406	-0.000000	-7.475326	-0.000000
1.958000	18.717886	1348.192413	-419.704460	0.140821	0.000000	-0.773707	-0.000000	12.864261	0.000000	2.289244	1247.467506	410.646845	0.161321	0.000000	-1.569464	-0.000000	-7.478419	-0.000000
1.959000	18.800151	1348.112834	-419.724009	0.140326	0.000000	-0.772918	-0.000000	12.865351	0.000000	2.228871	1247.118427	410.595323	0.160970	0.000000	-1.569449	-0.000000	-7.481365	-0.000000
1.960000	18.883523	1348.012903	-419.741890	0.140187	0.000000	-0.773279	-0.000000	12.865727	0.000000	2.173358	1246.769484	410.538801	0.160930	0.000000	-1.569401	-0.000000	-7.484183	-0.000000
1.961000	18.967658	1347.895260	-419.758231	0.140317	0.000000	-0.774375	-0.000000	12.865288	0.000000	2.122112	1246.419784	410.477166	0.160927	0.000000	-1.570141	-0.000000	-7.486897	-0.000000
1.962000	19.052064	1347.762806	-419.773189	0.140230	0.000000	-0.774125	-0.000000	12.863974	0.000000	2.074472	1246.068392	410.410514	0.162140	0.000000	-1.569753	-0.000000	-7.489549	-0.000000
1.963000	19.136148	1347.619035	-419.786970	0.140187	0.000000	-0.773354	-0.000000	12.861766	0.000000	2.029824	1245.714577	410.339165	0.162296	0.000000	-1.567807	-0.000000	-7.492179	-0.000000
1.964000	19.219247	1347.467759	-419.799795	0.141059	0.000000	-0.774489	-0.000000	12.858680	0.000000	1.987739	1245.358610	410.263622	0.160884	0.000000	-1.569252	-0.000000	-7.494810	-0.000000
1.965000	19.300650	1347.312368	-419.811891	0.141355	0.000000	-0.773834	-0.000000	12.854752	0.000000	1.947968	1245.001970	410.184506	0.161746	0.000000	-1.570171	-0.000000	-7.497450	-0.000000
1.966000	19.379620	1347.155396	-419.823533	0.140703	0.000000	-0.773634	-0.000000	12.850008	0.000000	1.910322	1244.646753	410.102516	0.161330	0.000000	-1.569071	-0.000000	-7.500113	-0.000000
1.967000	19.455394	1346.998953	-419.835104	0.140706	0.000000	-0.773042	-0.000000	12.844458	0.000000	1.874560	1244.295235	410.018403	0.161970	0.000000	-1.570104	-0.000000	-7.502831	-0.000000
1.968000	19.527164	1346.845289	-419.847071	0.140637	0.000000	-0.773385	-0.000000	12.838097	0.000000	1.840377	1243.949930	409.932957	0.162424	0.000000	-1.568990	-0.000000	-7.505642	-0.000000
1.969000	19.594108	1346.696640	-419.859937	0.139305	0.000000	-0.771979	-0.000000	12.830917	0.000000	1.807411	1243.613766	409.847032	0.162018	0.000000	-1.570862	-0.000000	-7.508580	-0.000000
1.970000	19.655460	1346.554630	-419.874214	0.140501	0.000000	-0.773159	-0.000000	12.822913	0.000000	1.775279	1243.289740	409.761624	0.161263	0.000000	-1.569894	-0.000000	-7.511671	-0.000000
1.971000	19.710545	1346.420015	-419.890412	0.140021	0.000000	-0.772327	-0.000000	12.814110	0.000000	1.743644	1242.980256	409.677874	0.161938	0.000000	-1.570044	-0.000000	-7.514962	-0.000000
1.972000	19.758738	1346.293008	-419.909074	0.140883	0.000000	-0.773201	-0.000000	12.804577	0.000000	1.712261	1242.687128	409.596952	0.162372	0.000000	-1.569777	-0.000000	-7.518530	-0.000000
